<?xml version="1.0" encoding="utf-8"?>
<!-- Generator: Adobe Illustrator 18.1.1, SVG Export Plug-In . SVG Version: 6.00 Build 0)  -->
<svg version="1.1" id="Your_Icon" xmlns="http://www.w3.org/2000/svg" xmlns:xlink="http://www.w3.org/1999/xlink" x="0px" y="0px"
	 viewBox="-195.6 822.2 604 304.3" enable-background="new -195.6 822.2 604 304.3" xml:space="preserve">
<path fill="#FFFFFF" d="M365.3,902.5c-30.2,0-136.5-9.9-136.5-9.9l-56.9-69.3c0,0-284.5-25.5-340.2,162.3h42.2
	c0-26.7,28.6-55.3,63.6-55.3c35.4,0,63.6,28.6,63.6,55.3h198.6c0-26.7,28.6-55.3,63.6-55.3c35.4,0,63.6,28.6,63.6,55.3h27.1
	l30.2-66.9C385.7,918.9,395.6,902.5,365.3,902.5z M-14.3,863.2c65.7-27.4,182.2-21.9,182.2-21.9l43,51.7
	C211,892.6-79.9,890.6-14.3,863.2z"/>
<path fill="#FFFFFF" fill-opacity="0.28" d="M365.3,902.5c-30.2,0-136.5-9.9-136.5-9.9l-56.9-69.3c0,0-284.5-25.5-340.2,162.3h42.2
	c0-26.7,28.6-55.3,63.6-55.3c35.4,0,63.6,28.6,63.6,55.3h198.6c0-26.7,28.6-55.3,63.6-55.3c35.4,0,63.6,28.6,63.6,55.3h27.1
	l30.2-66.9C385.7,918.9,395.6,902.5,365.3,902.5z M-14.3,863.2c65.7-27.4,182.2-21.9,182.2-21.9l43,51.7
	C211,892.6-79.9,890.6-14.3,863.2z"/>
<g>
	<path fill="#FFFFFF" d="M263.9,949.5c-19.9,0-36.2,16.4-36.2,36.2s16.4,36.2,36.2,36.2s36.2-16.4,36.2-36.2
		S284.2,949.5,263.9,949.5z M263.9,1006.9c-10.7,0-19.9-8.7-19.9-19.9c0-10.7,8.7-19.9,19.9-19.9c10.7,0,19.9,8.7,19.9,19.9
		C283.8,997.6,275.1,1006.9,263.9,1006.9z"/>
</g>
<g>
	<path fill="#FFFFFF" d="M-61.3,949.5c-19.9,0-36.2,16.4-36.2,36.2s16.4,36.2,36.2,36.2s36.2-16.4,36.2-36.2
		C-25,965.8-41.3,949.5-61.3,949.5z M-61.3,1006.9c-10.7,0-19.9-8.7-19.9-19.9c0-10.7,8.7-19.9,19.9-19.9c10.7,0,19.9,8.7,19.9,19.9
		C-41.3,997.6-50.5,1006.9-61.3,1006.9z"/>
</g>
<g enable-background="new    ">
	<path fill="#FFFFFF" d="M-158,1051.5c10.5,0,18.1,3.3,25.2,9.7c0.9,0.8,0.9,2.1,0.1,2.9l-6.3,6.6c-0.7,0.8-1.8,0.8-2.6,0
		c-4.4-3.9-10.2-6.1-16-6.1c-13.3,0-23.2,11.1-23.2,24.2c0,13,10,24,23.3,24c6.2,0,11.6-2.4,15.9-5.9c0.8-0.7,2-0.6,2.6,0l6.5,6.7
		c0.8,0.7,0.6,2.1-0.1,2.8c-7.1,6.9-16,10.1-25.3,10.1c-20.8,0-37.6-16.5-37.6-37.4C-195.6,1068.3-178.9,1051.5-158,1051.5z"/>
	<path fill="#FFFFFF" d="M-128.6,1122.7l32.4-70c0.3-0.6,0.8-1.1,1.8-1.1h1c1,0,1.5,0.5,1.8,1.1l32.1,70c0.6,1.4-0.2,2.7-1.8,2.7
		h-9.1c-1.6,0-2.3-0.6-3-2.1l-5.1-11.2h-31.1l-5.1,11.2c-0.4,1-1.4,2.1-3,2.1h-9.1C-128.4,1125.4-129.2,1124.1-128.6,1122.7z
		 M-83.6,1100.6l-10.4-22.9h-0.3l-10.2,22.9H-83.6z"/>
	<path fill="#FFFFFF" d="M-50.1,1054.6c0-1,0.8-2,2-2h29.8c12.5,0,22.7,10,22.7,22.4c0,9.6-6.3,17.4-15.4,21l14.3,26.4
		c0.7,1.4,0,3-1.8,3H-9.5c-0.9,0-1.5-0.5-1.7-0.9l-13.8-27.6h-11.6v26.5c0,1-0.9,2-2,2h-9.6c-1.1,0-2-0.9-2-2V1054.6z M-19.5,1085.8
		c5.5,0,10.3-4.8,10.3-10.6c0-5.5-4.8-10.1-10.3-10.1h-17v20.7H-19.5z"/>
	<path fill="#FFFFFF" d="M74.3,1051.5c9.4,0,18.3,3.6,25.4,9.7c0.8,0.8,0.9,2.1,0.1,2.9l-6.5,6.8c-0.8,0.8-1.8,0.8-2.7,0
		c-4.5-4-10-6-15.7-6c-13,0-23.3,11.1-23.3,24.1c0,12.9,10.3,23.8,23.4,23.8c5.8,0,10.3-1.8,12.4-2.6v-8.8h-8.3c-1.1,0-2-0.8-2-1.9
		v-8.2c0-1.1,0.8-2,2-2h20c1,0,1.9,0.9,1.9,2v26.6c0,0.8-0.4,1.4-0.8,1.7c0,0-10.7,6.8-25.8,6.8c-20.7,0-37.4-16.4-37.4-37.3
		C37,1068.3,53.6,1051.5,74.3,1051.5z"/>
	<path fill="#FFFFFF" d="M116.3,1054.6c0-1,0.8-2,2-2h42.4c1.1,0,2,0.9,2,2v8.5c0,1-0.8,2-2,2h-30.8v17.1h25.7c1,0,2,0.9,2,2v8.6
		c0,1.1-0.9,2-2,2h-25.7v18.2h30.8c1.1,0,2,0.9,2,2v8.5c0,1-0.8,2-2,2h-42.4c-1.1,0-2-0.9-2-2V1054.6z"/>
	<path fill="#FFFFFF" d="M177.5,1053.4c0-1,0.9-1.9,2-1.9h2.6l43.3,46h0.1v-43c0-1,0.8-2,2-2h9.6c1,0,2,0.9,2,2v70
		c0,1-0.9,1.9-2,1.9h-2.5l-43.5-47.8h-0.1v44.8c0,1-0.8,2-2,2h-9.5c-1,0-2-0.9-2-2V1053.4z"/>
	<path fill="#FFFFFF" d="M257.9,1054.6c0-1,0.9-2,2-2h9.7c1,0,2,0.9,2,2v68.9c0,1-0.9,2-2,2h-9.7c-1,0-2-0.9-2-2V1054.6z"/>
	<path fill="#FFFFFF" d="M289.5,1054.6c0-1,0.9-2,2-2h9.9c1.1,0,2,0.9,2,2v42.6c0,8.8,6,15.8,15.1,15.8s15.2-7,15.2-15.7v-42.7
		c0-1,0.8-2,2-2h9.9c1,0,2,0.9,2,2v43.3c0,15.8-12.6,28.6-29,28.6c-16.3,0-28.9-12.8-28.9-28.6V1054.6z"/>
	<path fill="#FFFFFF" d="M361.1,1115.2l3.7-6.5c0.8-1.5,2.6-1.5,3.5-0.7c0.5,0.3,9,6.5,15.7,6.5c5.4,0,9.5-3.5,9.5-8
		c0-5.3-4.5-9-13.2-12.5c-9.8-4-19.6-10.2-19.6-22.5c0-9.3,6.9-20,23.4-20c10.6,0,18.7,5.4,20.8,7c1,0.6,1.4,2.4,0.6,3.4l-4,5.9
		c-0.8,1.2-2.4,2.1-3.6,1.2c-0.8-0.5-8.7-5.7-14.5-5.7c-5.9,0-9.2,4-9.2,7.3c0,4.9,3.9,8.2,12.3,11.7c10.1,4.1,21.8,10.1,21.8,23.5
		c0,10.7-9.3,20.6-23.9,20.6c-13.1,0-20.8-6.1-22.9-8.1C360.6,1117.4,360.1,1116.9,361.1,1115.2z"/>
</g>
</svg>
